<svg width="241" height="84" viewBox="0 0 241 84" fill="none" xmlns="http://www.w3.org/2000/svg">
<path d="M236.497 0.0231694L234.467 5.4283L240.163 4.48313L236.497 0.0231694ZM189.746 67.1902L189.904 67.6647L189.746 67.1902ZM162.469 32.884L162.535 32.3884L162.469 32.884ZM0.04132 68.7611C0.434195 69.2489 0.917179 69.7136 1.47836 70.1573L2.09853 69.3728C1.58366 68.9658 1.15729 68.5525 0.820159 68.1338L0.04132 68.7611ZM4.82737 72.1832C5.89809 72.7001 7.09525 73.1919 8.40238 73.6605L8.73985 72.7191C7.45835 72.2597 6.2947 71.7811 5.26209 71.2826L4.82737 72.1832ZM12.064 74.8354C13.2404 75.1753 14.4789 75.5024 15.772 75.8173L16.0086 74.8457C14.7273 74.5337 13.5027 74.2102 12.3416 73.8747L12.064 74.8354ZM19.516 76.6649C20.7296 76.9209 21.9801 77.1682 23.2626 77.4073L23.4458 76.4242C22.1703 76.1865 20.9276 75.9407 19.7224 75.6865L19.516 76.6649ZM27.0342 78.0723C28.2689 78.2785 29.527 78.478 30.8047 78.6713L30.9542 77.6825C29.6812 77.49 28.4282 77.2912 27.1989 77.086L27.0342 78.0723ZM34.5909 79.2186C35.8392 79.3911 37.1019 79.5582 38.3758 79.7203L38.502 78.7283C37.2314 78.5667 35.9723 78.4 34.7278 78.228L34.5909 79.2186ZM42.1666 80.1844C43.4254 80.3328 44.6918 80.4766 45.9627 80.6161L46.0718 79.6221C44.8034 79.4828 43.5396 79.3393 42.2836 79.1913L42.1666 80.1844ZM49.7591 81.0195C51.025 81.1497 52.2924 81.276 53.5583 81.3985L53.6547 80.4032C52.3906 80.2808 51.1252 80.1547 49.8615 80.0247L49.7591 81.0195ZM57.3584 81.7564C58.6313 81.8731 59.8998 81.9862 61.1609 82.0962L61.2477 81.1C59.988 80.9901 58.721 80.8771 57.4496 80.7606L57.3584 81.7564ZM64.9655 82.4206C66.2446 82.5274 67.5125 82.631 68.766 82.7319L68.8462 81.7351C67.5936 81.6343 66.3266 81.5308 65.0486 81.4241L64.9655 82.4206ZM72.5733 83.0335C73.2102 83.0832 73.8423 83.1323 74.469 83.1807L74.546 82.1837C73.9196 82.1353 73.2878 82.0863 72.6512 82.0365L72.5733 83.0335ZM74.469 83.1807C75.104 83.2298 75.7431 83.2747 76.3861 83.3155L76.4495 82.3175C75.8109 82.277 75.1763 82.2324 74.546 82.1837L74.469 83.1807ZM80.2423 83.5107C81.517 83.5594 82.804 83.5935 84.1009 83.6138L84.1165 82.6139C82.8268 82.5937 81.5473 82.5598 80.2805 82.5114L80.2423 83.5107ZM87.9596 83.6339C89.2386 83.6277 90.5249 83.6089 91.8163 83.5784L91.7927 82.5787C90.5073 82.6091 89.2272 82.6277 87.9547 82.6339L87.9596 83.6339ZM95.6688 83.4534C96.9498 83.4008 98.2338 83.3374 99.5187 83.2637L99.4615 82.2653C98.1818 82.3387 96.9032 82.4019 95.6278 82.4543L95.6688 83.4534ZM103.365 83.0131C104.648 82.9198 105.929 82.8168 107.208 82.7048L107.12 81.7087C105.847 81.8202 104.57 81.9228 103.293 82.0158L103.365 83.0131ZM111.045 82.3413C112.329 82.2106 113.607 82.0713 114.877 81.9242L114.762 80.9308C113.496 81.0775 112.223 81.2162 110.944 81.3464L111.045 82.3413ZM118.703 81.4548C119.987 81.2885 121.26 81.1145 122.522 80.9337L122.38 79.9438C121.123 80.124 119.854 80.2974 118.574 80.4631L118.703 81.4548ZM126.332 80.3608C127.615 80.1588 128.882 79.9501 130.131 79.7354L129.962 78.7499C128.717 78.9638 127.455 79.1717 126.176 79.3729L126.332 80.3608ZM133.924 79.0552C135.212 78.8143 136.477 78.5675 137.714 78.3157L137.515 77.3358C136.282 77.5865 135.023 77.8323 133.74 78.0723L133.924 79.0552ZM141.489 77.5147C142.775 77.2299 144.026 76.9402 145.237 76.6469L145.002 75.675C143.797 75.9667 142.553 76.2549 141.272 76.5384L141.489 77.5147ZM148.986 75.6948C150.283 75.3488 151.521 74.9996 152.696 74.6491L152.41 73.6909C151.245 74.0384 150.016 74.3849 148.728 74.7286L148.986 75.6948ZM156.39 73.4697C157.724 73.0119 158.939 72.5547 160.022 72.1018L159.636 71.1793C158.578 71.6221 157.383 72.0717 156.066 72.5239L156.39 73.4697ZM163.529 70.3726C164.188 69.972 164.735 69.5696 165.148 69.1663L164.45 68.4507C164.109 68.7831 163.63 69.1408 163.009 69.5183L163.529 70.3726ZM165.148 69.1663C165.573 68.752 166.033 68.2615 166.517 67.7064L165.763 67.0493C165.293 67.5882 164.851 68.0585 164.45 68.4507L165.148 69.1663ZM168.968 64.5908C169.698 63.5747 170.437 62.4636 171.155 61.2845L170.301 60.7647C169.597 61.9216 168.871 63.0115 168.156 64.0075L168.968 64.5908ZM173.081 57.8225C173.674 56.6453 174.224 55.4304 174.705 54.1988L173.773 53.8354C173.306 55.0342 172.769 56.22 172.188 57.3722L173.081 57.8225ZM175.929 50.4044C176.262 49.0755 176.488 47.7476 176.571 46.4469L175.573 46.3828C175.494 47.6132 175.28 48.8806 174.959 50.1612L175.929 50.4044ZM176.315 42.4092C176.031 41.0688 175.531 39.7954 174.768 38.6288L173.931 39.1758C174.62 40.229 175.076 41.3849 175.336 42.6161L176.315 42.4092ZM171.936 35.6912C170.93 34.9623 169.747 34.327 168.369 33.7995L168.011 34.7334C169.318 35.2335 170.422 35.8289 171.349 36.5007L171.936 35.6912ZM164.514 32.7137C163.883 32.589 163.224 32.4803 162.535 32.3884L162.402 33.3796C163.072 33.4689 163.711 33.5743 164.32 33.6947L164.514 32.7137ZM162.535 32.3884C161.844 32.2963 161.176 32.2462 160.529 32.2361L160.514 33.236C161.119 33.2455 161.749 33.2924 162.402 33.3796L162.535 32.3884ZM156.545 32.7397C155.188 33.131 153.98 33.7385 152.926 34.523L153.523 35.3252C154.48 34.6127 155.58 34.0588 156.822 33.7006L156.545 32.7397ZM150.165 37.4658C149.441 38.5618 148.875 39.7865 148.469 41.0986L149.424 41.3943C149.805 40.1642 150.332 39.027 150.999 38.0171L150.165 37.4658ZM147.743 45.0196C147.648 46.3107 147.68 47.6441 147.84 48.9922L148.833 48.8745C148.68 47.5872 148.65 46.3178 148.74 45.093L147.743 45.0196ZM148.649 52.8756C149.022 54.1206 149.505 55.3571 150.098 56.5636L150.996 56.1221C150.427 54.9657 149.964 53.7809 149.607 52.5886L148.649 52.8756ZM152.131 59.9583C152.888 61.0138 153.743 62.0252 154.698 62.9748L155.403 62.2659C154.489 61.3561 153.669 60.3871 152.944 59.3756L152.131 59.9583ZM157.729 65.5283C158.777 66.2723 159.908 66.9502 161.123 67.5487L161.565 66.6516C160.398 66.0768 159.313 65.4263 158.308 64.713L157.729 65.5283ZM164.797 69.0222C166.009 69.4068 167.287 69.7196 168.63 69.9516L168.8 68.9662C167.501 68.7418 166.268 68.4396 165.1 68.069L164.797 69.0222ZM172.534 70.3816C173.795 70.4458 175.105 70.4441 176.464 70.3707L176.41 69.3722C175.085 69.4437 173.81 69.4453 172.585 69.3829L172.534 70.3816ZM180.369 69.9777C181.615 69.7963 182.899 69.5581 184.219 69.2594L183.998 68.2841C182.703 68.5772 181.445 68.8106 180.225 68.9881L180.369 69.9777ZM188 68.2656C188.627 68.0784 189.262 67.8782 189.904 67.6647L189.589 66.7158C188.956 66.9261 188.331 67.1232 187.714 67.3073L188 68.2656ZM189.904 67.6647C190.564 67.4455 191.215 67.2217 191.858 66.9934L191.524 66.051C190.887 66.277 190.242 66.4986 189.589 66.7158L189.904 67.6647ZM195.691 65.5439C196.981 65.0246 198.237 64.4864 199.458 63.9301L199.044 63.02C197.836 63.57 196.594 64.1024 195.318 64.6163L195.691 65.5439ZM203.147 62.1444C204.384 61.5085 205.582 60.8533 206.743 60.1799L206.241 59.3149C205.095 59.9797 203.912 60.6268 202.69 61.255L203.147 62.1444ZM210.236 58.0265C211.403 57.2622 212.528 56.4785 213.611 55.6769L213.016 54.8731C211.948 55.6632 210.839 56.436 209.688 57.1899L210.236 58.0265ZM216.838 53.1355C217.903 52.2425 218.923 51.3311 219.897 50.4034L219.207 49.6792C218.248 50.5922 217.245 51.4895 216.195 52.3691L216.838 53.1355ZM222.783 47.4687C223.725 46.4447 224.617 45.4044 225.461 44.3504L224.68 43.7254C223.85 44.7616 222.973 45.7845 222.047 46.7917L222.783 47.4687ZM227.916 41.0531C228.706 39.9091 229.444 38.7527 230.132 37.5865L229.27 37.0787C228.595 38.2243 227.87 39.3605 227.093 40.4846L227.916 41.0531ZM232.09 33.9698C232.706 32.7257 233.268 31.4743 233.778 30.2189L232.851 29.8424C232.35 31.0752 231.798 32.3043 231.194 33.5262L232.09 33.9698ZM235.185 26.3512C235.611 25.0314 235.982 23.7111 236.301 22.3943L235.33 22.1586C235.016 23.4517 234.651 24.7482 234.233 26.0442L235.185 26.3512ZM237.122 18.3612C237.349 16.9905 237.521 15.6279 237.641 14.278L236.645 14.1891C236.527 15.5145 236.358 16.8523 236.136 18.1982L237.122 18.3612ZM237.852 10.1689C237.871 8.77709 237.836 7.40435 237.75 6.05594L236.752 6.11955C236.836 7.44231 236.871 8.78933 236.852 10.1554L237.852 10.1689Z" fill="#020202"/>
</svg>
