<svg width="227" height="227" viewBox="0 0 227 227" fill="none" xmlns="http://www.w3.org/2000/svg">
<path d="M105.378 87.0312L105.378 87.0312C105.535 83.8406 107.721 81.2624 110.574 80.6422C110.94 80.5555 111.321 80.5233 111.669 80.5075C112.03 80.4911 112.387 80.4988 112.774 80.5586C115.002 80.8844 117.201 82.3916 118.686 85.0047C121.335 89.6533 122.138 96.6902 121.068 104.303H140.292H140.335L140.377 104.31C141.73 104.544 142.9 105.386 143.772 106.479C144.645 107.575 145.246 108.957 145.448 110.342L145.449 110.349L145.449 110.356C145.696 112.478 145.042 114.736 143.492 116.668C144.354 119.752 143.758 123.705 141.109 126.806C140.995 126.948 140.863 127.07 140.719 127.174C141.144 130.029 140.263 133.24 138.037 136.012L138.036 136.013C137.844 136.251 137.601 136.442 137.328 136.573C136.683 139.202 135.317 141.556 132.342 143.977C131.988 144.269 131.535 144.441 131.075 144.451L131.062 144.451V144.451C125.499 144.428 121.118 144.456 117.606 144.478C116.432 144.485 115.355 144.492 114.363 144.496C110.413 144.512 107.796 144.486 105.803 144.279M105.378 87.0312L105.855 143.782M105.378 87.0312L105.378 87.037C105.213 91.424 104.846 94.879 103.853 98.2051C102.909 101.364 101.394 104.431 98.9151 108.077M105.378 87.0312L98.9151 108.077M105.803 144.279L105.855 143.782M105.803 144.279C105.803 144.279 105.804 144.279 105.804 144.279L105.855 143.782M105.803 144.279C103.786 144.074 102.282 143.604 100.937 142.799C100.27 142.399 99.6305 141.92 98.9738 141.398M105.855 143.782C103.894 143.582 102.463 143.13 101.194 142.37C100.552 141.985 99.9316 141.52 99.2787 141.002C99.1847 141.14 99.0828 141.272 98.9738 141.398M98.9738 141.398C98.1756 142.322 96.9937 142.916 95.6879 142.916H81.8452C79.4628 142.916 77.5 140.958 77.5 138.578V110.944C77.5 108.563 79.4628 106.606 81.8452 106.606H95.6879C96.9778 106.606 98.1235 107.182 98.9151 108.077M98.9738 141.398C98.8444 141.296 98.7143 141.191 98.5832 141.086C97.8751 141.898 96.8334 142.416 95.6879 142.416H81.8452C79.738 142.416 78 140.681 78 138.578V110.944C78 108.84 79.738 107.106 81.8452 107.106H95.6879C96.8683 107.106 97.9172 107.654 98.6225 108.503L98.9151 108.077M112.079 84.5757C113.022 84.6536 114.059 85.3138 114.763 86.332L115.148 87.011C117.314 90.8235 118.263 98.0814 116.753 105.952L116.753 105.952C116.635 106.567 116.85 107.171 117.213 107.61C117.576 108.049 118.13 108.373 118.759 108.373H139.737C140.692 108.899 141.289 109.757 141.411 110.808C141.524 111.813 141.141 113.06 140.077 114.282H132.594C131.513 114.282 130.533 115.217 130.533 116.317C130.533 117.407 131.504 118.37 132.599 118.352H139.709C139.976 119.786 139.649 121.638 138.427 123.493H131.056C129.975 123.493 128.995 124.428 128.995 125.528C128.995 126.618 129.966 127.581 131.061 127.564H136.633C136.9 128.997 136.573 130.85 135.351 132.704H129.518C128.437 132.704 127.457 133.639 127.457 134.74C127.457 135.83 128.428 136.792 129.522 136.775H133.068C132.604 137.971 131.818 139.016 130.241 140.38C125.296 140.365 121.272 140.382 117.992 140.395C116.592 140.401 115.328 140.406 114.185 140.408C110.319 140.415 107.859 140.384 106.23 140.214C104.58 140.042 103.858 139.81 103.043 139.323C102.445 138.965 101.738 138.392 100.759 137.598C100.535 137.417 100.296 137.223 100.041 137.018V113.488C107.163 104.392 109.1 96.6936 109.46 87.235C109.703 86.1527 110.111 85.472 110.56 85.0744C111.007 84.6786 111.531 84.5304 112.079 84.5757ZM81.8452 110.684H95.6879C95.7962 110.684 95.857 110.719 95.8894 110.752C95.9217 110.784 95.957 110.844 95.957 110.951V138.585C95.957 138.693 95.9217 138.753 95.8894 138.785C95.857 138.817 95.7962 138.853 95.6879 138.853H81.8452C81.7369 138.853 81.6762 138.817 81.6438 138.785C81.6114 138.753 81.5762 138.693 81.5762 138.585V110.951C81.5762 110.844 81.6114 110.784 81.6438 110.752C81.6762 110.719 81.7369 110.684 81.8452 110.684Z" fill="black" stroke="black"/>
<circle cx="111.5" cy="112.5" r="72" stroke="black" stroke-width="7"/>
<circle cx="217.691" cy="35.0865" r="9.30864" fill="black" fill-opacity="0.8"/>
<circle cx="20.7776" cy="12.8889" r="12.8889" fill="black" fill-opacity="0.8"/>
<circle cx="7.17296" cy="168.272" r="6.44444" fill="black" fill-opacity="0.8"/>
<circle cx="202.653" cy="201.926" r="2.8642" fill="black" fill-opacity="0.8"/>
<circle cx="128.185" cy="5.72846" r="2.8642" fill="black" fill-opacity="0.8"/>
<circle cx="72.3334" cy="221.975" r="4.2963" fill="black" fill-opacity="0.8"/>
<circle cx="148.235" cy="216.247" r="1.4321" fill="black" fill-opacity="0.8"/>
<circle cx="208.384" cy="138.914" r="2.8642" fill="black" fill-opacity="0.8"/>
</svg>
