<svg width="16" height="16" viewBox="0 0 16 16" fill="none" xmlns="http://www.w3.org/2000/svg">
<g clip-path="url(#clip0_146_59674)">
<path d="M-0.00012207 3.5C-0.00012207 3.10218 0.157913 2.72064 0.439218 2.43934C0.720522 2.15804 1.10205 2 1.49988 2H14.4999C14.8977 2 15.2792 2.15804 15.5605 2.43934C15.8418 2.72064 15.9999 3.10218 15.9999 3.5V12.5C15.9999 12.8978 15.8418 13.2794 15.5605 13.5607C15.2792 13.842 14.8977 14 14.4999 14H1.49988C1.10205 14 0.720522 13.842 0.439218 13.5607C0.157913 13.2794 -0.00012207 12.8978 -0.00012207 12.5L-0.00012207 3.5ZM1.49988 3C1.36727 3 1.24009 3.05268 1.14632 3.14645C1.05256 3.24021 0.999878 3.36739 0.999878 3.5V12.5C0.999878 12.6326 1.05256 12.7598 1.14632 12.8536C1.24009 12.9473 1.36727 13 1.49988 13H14.4999C14.6325 13 14.7597 12.9473 14.8534 12.8536C14.9472 12.7598 14.9999 12.6326 14.9999 12.5V3.5C14.9999 3.36739 14.9472 3.24021 14.8534 3.14645C14.7597 3.05268 14.6325 3 14.4999 3H1.49988Z" fill="black"/>
<path d="M1.99976 4.5C1.99976 4.36739 2.05243 4.24021 2.1462 4.14645C2.23997 4.05268 2.36715 4 2.49976 4H5.49976C5.63236 4 5.75954 4.05268 5.85331 4.14645C5.94708 4.24021 5.99976 4.36739 5.99976 4.5C5.99976 4.63261 5.94708 4.75979 5.85331 4.85355C5.75954 4.94732 5.63236 5 5.49976 5H2.99976V7.5C2.99976 7.63261 2.94708 7.75979 2.85331 7.85355C2.75954 7.94732 2.63236 8 2.49976 8C2.36715 8 2.23997 7.94732 2.1462 7.85355C2.05243 7.75979 1.99976 7.63261 1.99976 7.5V4.5ZM13.9998 11.5C13.9998 11.6326 13.9471 11.7598 13.8533 11.8536C13.7595 11.9473 13.6324 12 13.4998 12H10.4998C10.3671 12 10.24 11.9473 10.1462 11.8536C10.0524 11.7598 9.99976 11.6326 9.99976 11.5C9.99976 11.3674 10.0524 11.2402 10.1462 11.1464C10.24 11.0527 10.3671 11 10.4998 11H12.9998V8.5C12.9998 8.36739 13.0524 8.24021 13.1462 8.14645C13.24 8.05268 13.3671 8 13.4998 8C13.6324 8 13.7595 8.05268 13.8533 8.14645C13.9471 8.24021 13.9998 8.36739 13.9998 8.5V11.5Z" fill="black"/>
</g>
<defs>
<clipPath id="clip0_146_59674">
<rect width="16" height="16" fill="white"/>
</clipPath>
</defs>
</svg>
