<svg width="16" height="16" viewBox="0 0 16 16" fill="none" xmlns="http://www.w3.org/2000/svg">
<path d="M14.5 6H13C13 5.86739 12.9473 5.74021 12.8536 5.64645C12.7598 5.55268 12.6326 5.5 12.5 5.5H8.5C8.36739 5.5 8.24022 5.55268 8.14645 5.64645C8.05268 5.74021 8 5.86739 8 6H4V3.25C4 3.05109 4.07902 2.86032 4.21967 2.71967C4.36032 2.57902 4.55109 2.5 4.75 2.5C4.94891 2.5 5.13968 2.57902 5.28033 2.71967C5.42098 2.86032 5.5 3.05109 5.5 3.25C5.5 3.38261 5.55268 3.50979 5.64645 3.60355C5.74022 3.69732 5.86739 3.75 6 3.75C6.13261 3.75 6.25979 3.69732 6.35355 3.60355C6.44732 3.50979 6.5 3.38261 6.5 3.25C6.5 2.78587 6.31563 2.34075 5.98744 2.01256C5.65925 1.68437 5.21413 1.5 4.75 1.5C4.28587 1.5 3.84075 1.68437 3.51256 2.01256C3.18437 2.34075 3 2.78587 3 3.25V6H1.5C1.23478 6 0.98043 6.10536 0.792893 6.29289C0.605357 6.48043 0.5 6.73478 0.5 7V9C0.5 9.92826 0.868749 10.8185 1.52513 11.4749C2.1815 12.1313 3.07174 12.5 4 12.5V13.5C4 13.6326 4.05268 13.7598 4.14645 13.8536C4.24022 13.9473 4.36739 14 4.5 14C4.63261 14 4.75979 13.9473 4.85355 13.8536C4.94732 13.7598 5 13.6326 5 13.5V12.5H11V13.5C11 13.6326 11.0527 13.7598 11.1464 13.8536C11.2402 13.9473 11.3674 14 11.5 14C11.6326 14 11.7598 13.9473 11.8536 13.8536C11.9473 13.7598 12 13.6326 12 13.5V12.5C12.9283 12.5 13.8185 12.1313 14.4749 11.4749C15.1313 10.8185 15.5 9.92826 15.5 9V7C15.5 6.73478 15.3946 6.48043 15.2071 6.29289C15.0196 6.10536 14.7652 6 14.5 6ZM12 6.5V8.5H9V6.5H12ZM14.5 9C14.5 9.3283 14.4353 9.65339 14.3097 9.95671C14.1841 10.26 13.9999 10.5356 13.7678 10.7678C13.5356 10.9999 13.26 11.1841 12.9567 11.3097C12.6534 11.4353 12.3283 11.5 12 11.5H4C3.33696 11.5 2.70107 11.2366 2.23223 10.7678C1.76339 10.2989 1.5 9.66304 1.5 9V7H8V9C8 9.13261 8.05268 9.25979 8.14645 9.35355C8.24022 9.44732 8.36739 9.5 8.5 9.5H12.5C12.6326 9.5 12.7598 9.44732 12.8536 9.35355C12.9473 9.25979 13 9.13261 13 9V7H14.5V9Z" fill="black"/>
</svg>
