<svg width="16" height="16" viewBox="0 0 16 16" fill="none" xmlns="http://www.w3.org/2000/svg">
<path d="M4.50004 2.66699H11.5C11.9669 2.66697 12.4162 2.84505 12.7562 3.16492C13.0963 3.48479 13.3015 3.92234 13.33 4.38833L13.3334 4.50033V6.73633C13.6968 6.83948 14.0194 7.0523 14.2574 7.3457C14.4953 7.63911 14.6368 7.9988 14.6627 8.37566L14.6667 8.50033V13.5003C14.6667 13.627 14.6185 13.749 14.5321 13.8415C14.4456 13.9341 14.3272 13.9904 14.2008 13.999C14.0744 14.0076 13.9494 13.968 13.8512 13.888C13.7529 13.8081 13.6886 13.6938 13.6714 13.5683L13.6667 13.5003V12.0003H2.33337V13.5003C2.33337 13.6212 2.28961 13.7379 2.2102 13.8289C2.13078 13.92 2.02108 13.9792 1.90137 13.9957L1.83337 14.0003C1.71255 14.0003 1.59581 13.9566 1.50475 13.8771C1.41369 13.7977 1.35447 13.688 1.33804 13.5683L1.33337 13.5003V8.50033C1.33337 7.66099 1.89737 6.95366 2.66671 6.73566V4.50033C2.66668 4.03347 2.84477 3.58419 3.16464 3.24413C3.4845 2.90407 3.92205 2.69885 4.38804 2.67033L4.50004 2.66699ZM12.8334 7.66699H3.16671C2.9604 7.6669 2.7614 7.74333 2.6082 7.88151C2.455 8.01968 2.3585 8.20977 2.33737 8.41499L2.33337 8.50033V11.0003H13.6667V8.50033C13.6666 8.29413 13.5901 8.09529 13.452 7.94223C13.3138 7.78918 13.1238 7.69277 12.9187 7.67166L12.8334 7.66699ZM11.5 3.66699H4.50004C4.29374 3.6669 4.09473 3.74333 3.94153 3.88151C3.78833 4.01968 3.69183 4.20977 3.67071 4.41499L3.66671 4.50033V6.66699H4.66671C4.66671 6.49018 4.73695 6.32061 4.86197 6.19559C4.98699 6.07056 5.15656 6.00033 5.33337 6.00033H6.66671C6.83 6.00035 6.9876 6.0603 7.10962 6.1688C7.23165 6.27731 7.3096 6.42682 7.32871 6.58899L7.33337 6.66699H8.66671C8.66671 6.49018 8.73695 6.32061 8.86197 6.19559C8.98699 6.07056 9.15656 6.00033 9.33337 6.00033H10.6667C10.83 6.00035 10.9876 6.0603 11.1096 6.1688C11.2316 6.27731 11.3096 6.42682 11.3287 6.58899L11.3334 6.66699H12.3334V4.50033C12.3335 4.29402 12.257 4.09501 12.1189 3.94182C11.9807 3.78862 11.7906 3.69212 11.5854 3.67099L11.5 3.66699Z" fill="black"/>
</svg>
