<svg width="32" height="32" viewBox="0 0 32 32" fill="none" xmlns="http://www.w3.org/2000/svg">
<rect x="7.25" y="7.25" width="17.5" height="14.8333" rx="2.75" stroke="#33363F" stroke-width="1.5"/>
<path d="M20 7.66699H21V6.66699V4.66699C21 4.64884 21 4.6307 21 4.61258C21.0001 4.18851 21.0002 3.77639 20.9545 3.43647C20.903 3.05327 20.7774 2.61599 20.4142 2.25278C20.051 1.88956 19.6137 1.76404 19.2305 1.71252C18.8906 1.66682 18.4785 1.6669 18.0544 1.66699C18.0363 1.66699 18.0182 1.66699 18 1.66699H14C13.9818 1.66699 13.9637 1.66699 13.9456 1.66699C13.5215 1.6669 13.1094 1.66682 12.7695 1.71252C12.3863 1.76404 11.949 1.88956 11.5858 2.25278C11.2226 2.61599 11.097 3.05327 11.0455 3.43647C10.9998 3.77639 10.9999 4.18851 11 4.61258C11 4.6307 11 4.64884 11 4.66699V6.66699V7.66699H12H20Z" stroke="#33363F" stroke-width="2"/>
<path d="M20 21.6663H21V22.6663V27.333C21 27.3512 21 27.3693 21 27.3874C21.0001 27.8115 21.0002 28.2236 20.9545 28.5635C20.903 28.9467 20.7774 29.384 20.4142 29.7472C20.051 30.1104 19.6137 30.236 19.2305 30.2875C18.8906 30.3332 18.4785 30.3331 18.0544 30.333C18.0363 30.333 18.0182 30.333 18 30.333H14C13.9818 30.333 13.9637 30.333 13.9456 30.333C13.5215 30.3331 13.1094 30.3332 12.7695 30.2875C12.3863 30.236 11.949 30.1104 11.5858 29.7472C11.2226 29.384 11.097 28.9467 11.0455 28.5635C10.9998 28.2236 10.9999 27.8115 11 27.3874C11 27.3693 11 27.3512 11 27.333V22.6663V21.6663H12H20Z" stroke="#33363F" stroke-width="2"/>
</svg>
