<svg width="40" height="40" viewBox="0 0 40 40" fill="none" xmlns="http://www.w3.org/2000/svg">
<path d="M25.8666 13.3337C25.8666 16.5737 23.24 19.2003 19.9999 19.2003C16.7598 19.2003 14.1333 16.5737 14.1333 13.3337C14.1333 10.0936 16.7598 7.46699 19.9999 7.46699C23.24 7.46699 25.8666 10.0936 25.8666 13.3337Z" stroke="#33363F" stroke-width="1.6" stroke-linecap="round"/>
<path d="M24.6959 12.9C25.2529 11.9353 26.1703 11.2314 27.2462 10.9431C28.3222 10.6548 29.4686 10.8057 30.4333 11.3627C31.3979 11.9196 32.1018 12.837 32.3901 13.913C32.6784 14.9889 32.5275 16.1353 31.9706 17.1C31.4136 18.0647 30.4962 18.7686 29.4203 19.0569C28.3443 19.3452 27.1979 19.1943 26.2333 18.6373C25.2686 18.0804 24.5647 17.163 24.2764 16.087C23.9881 15.0111 24.139 13.8647 24.6959 12.9L24.6959 12.9Z" stroke="#33363F" stroke-width="1.6"/>
<path d="M8.02944 12.9C8.5864 11.9353 9.50375 11.2314 10.5797 10.9431C11.6557 10.6548 12.8021 10.8057 13.7667 11.3627C14.7314 11.9196 15.4353 12.837 15.7236 13.913C16.0119 14.9889 15.861 16.1353 15.3041 17.1C14.7471 18.0647 13.8297 18.7686 12.7538 19.0569C11.6778 19.3452 10.5314 19.1943 9.56675 18.6373C8.60207 18.0804 7.89816 17.163 7.60986 16.087C7.32156 15.0111 7.47249 13.8647 8.02944 12.9L8.02944 12.9Z" stroke="#33363F" stroke-width="1.6"/>
<path d="M28.1361 29.9997L27.3518 30.1576L27.4812 30.7997H28.1361V29.9997ZM34.7615 28.8951L35.5324 28.6813L35.5324 28.6813L34.7615 28.8951ZM24.6348 24.5172L24.1509 23.8802L23.2256 24.5829L24.2123 25.1966L24.6348 24.5172ZM33.8673 29.1997H28.1361V30.7997H33.8673V29.1997ZM33.9906 29.109C33.9959 29.128 33.9938 29.1359 33.9935 29.1373C33.9929 29.14 33.9909 29.1462 33.9838 29.1549C33.9691 29.1726 33.9324 29.1997 33.8673 29.1997V30.7997C34.9245 30.7997 35.8535 29.839 35.5324 28.6813L33.9906 29.109ZM28.3334 24.133C30.2349 24.133 31.4992 24.9253 32.3685 25.9277C33.2594 26.955 33.7434 28.2179 33.9906 29.109L35.5324 28.6813C35.2541 27.6778 34.6874 26.1596 33.5773 24.8795C32.4456 23.5745 30.7585 22.533 28.3334 22.533V24.133ZM25.1187 25.1543C25.9078 24.5549 26.9444 24.133 28.3334 24.133V22.533C26.5893 22.533 25.2139 23.0728 24.1509 23.8802L25.1187 25.1543ZM24.2123 25.1966C26.2429 26.4595 27.0425 28.6218 27.3518 30.1576L28.9204 29.8417C28.576 28.1322 27.6393 25.4438 25.0573 23.8379L24.2123 25.1966Z" fill="#33363F"/>
<path d="M15.3652 24.5172L15.7877 25.1965L16.7744 24.5829L15.8491 23.8801L15.3652 24.5172ZM5.2385 28.8951L4.4676 28.6813L4.4676 28.6813L5.2385 28.8951ZM11.8638 29.9997V30.7997H12.5188L12.6481 30.1576L11.8638 29.9997ZM11.6666 24.133C13.0556 24.133 14.0922 24.5549 14.8813 25.1543L15.8491 23.8801C14.7861 23.0727 13.4107 22.533 11.6666 22.533V24.133ZM6.0094 29.109C6.25655 28.2179 6.74062 26.955 7.6315 25.9277C8.50079 24.9253 9.76508 24.133 11.6666 24.133V22.533C9.24148 22.533 7.55445 23.5745 6.42272 24.8795C5.31258 26.1596 4.74592 27.6778 4.4676 28.6813L6.0094 29.109ZM6.13269 29.1997C6.06755 29.1997 6.03089 29.1726 6.01622 29.1549C6.00903 29.1462 6.00706 29.14 6.00644 29.1373C6.00614 29.1359 6.00411 29.128 6.0094 29.109L4.4676 28.6813C4.14652 29.839 5.07545 30.7997 6.13269 30.7997V29.1997ZM11.8638 29.1997H6.13269V30.7997H11.8638V29.1997ZM12.6481 30.1576C12.9574 28.6218 13.7571 26.4595 15.7877 25.1965L14.9427 23.8379C12.3606 25.4438 11.4239 28.1321 11.0796 29.8417L12.6481 30.1576Z" fill="#33363F"/>
<path d="M20.0001 23.333C26.5372 23.333 27.9463 28.4611 28.25 30.6718C28.3251 31.2189 27.8857 31.6663 27.3334 31.6663H12.6667C12.1145 31.6663 11.675 31.2189 11.7502 30.6718C12.0539 28.4611 13.463 23.333 20.0001 23.333Z" stroke="#33363F" stroke-width="1.6" stroke-linecap="round"/>
</svg>
