<svg width="25" height="24" viewBox="0 0 25 24" fill="none" xmlns="http://www.w3.org/2000/svg">
<path fill-rule="evenodd" clip-rule="evenodd" d="M16.4202 12.7988C16.4725 12.5407 16.5 12.2736 16.5 12C16.5 9.79086 14.7091 8 12.5 8C12.2264 8 11.9593 8.02746 11.7012 8.07977L16.4202 12.7988ZM9.16676 9.78799C8.74547 10.4216 8.5 11.1821 8.5 12C8.5 14.2091 10.2909 16 12.5 16C13.3179 16 14.0784 15.7545 14.712 15.3332L13.2381 13.8594C13.0098 13.9501 12.7607 14 12.5 14C11.3954 14 10.5 13.1046 10.5 12C10.5 11.7393 10.5499 11.4902 10.6406 11.2619L9.16676 9.78799Z" fill="#33363F"/>
<path fill-rule="evenodd" clip-rule="evenodd" d="M17.0199 17.6405L15.5506 16.1712C14.5784 16.6805 13.5485 17 12.5007 17C10.9749 17 9.48689 16.3224 8.15988 15.3677C6.84075 14.4186 5.76482 13.2558 5.0846 12.43C4.98483 12.3088 4.91031 12.2182 4.84858 12.1385C4.79972 12.0754 4.76859 12.0315 4.74829 12C4.76859 11.9685 4.79972 11.9246 4.84858 11.8615C4.91031 11.7818 4.98483 11.6912 5.0846 11.57C5.75001 10.7622 6.79408 9.63187 8.07404 8.69463L6.64532 7.2659C5.29716 8.29616 4.2232 9.47005 3.54083 10.2985C3.51724 10.3272 3.49266 10.3566 3.46735 10.3869L3.46734 10.3869C3.15391 10.7624 2.73047 11.2696 2.73047 12C2.73047 12.7304 3.15391 13.2376 3.46734 13.6131L3.46756 13.6133C3.49279 13.6435 3.5173 13.6729 3.54083 13.7015C4.28069 14.5998 5.48091 15.9041 6.99185 16.9912C8.49489 18.0725 10.3908 19 12.5007 19C14.1708 19 15.7067 18.419 17.0199 17.6405ZM9.30756 5.6855C10.2914 5.26871 11.365 5 12.5007 5C14.6107 5 16.5066 5.92747 18.0096 7.00885C19.5206 8.0959 20.7208 9.40025 21.4607 10.2985C21.4842 10.3272 21.5088 10.3566 21.5341 10.3869L21.5341 10.3869C21.8476 10.7624 22.271 11.2696 22.271 12C22.271 12.7304 21.8476 13.2376 21.5341 13.6131C21.5088 13.6434 21.4843 13.6728 21.4607 13.7015C20.974 14.2923 20.2882 15.0589 19.4458 15.8237L18.0297 14.4077C18.8096 13.708 19.4546 12.9912 19.9169 12.43C20.0167 12.3088 20.0912 12.2182 20.1529 12.1385C20.2018 12.0754 20.2329 12.0315 20.2532 12C20.2329 11.9685 20.2018 11.9246 20.1529 11.8615C20.0912 11.7818 20.0167 11.6912 19.9169 11.57C19.2367 10.7442 18.1607 9.58138 16.8416 8.63233C15.5146 7.6776 14.0265 7 12.5007 7C11.9497 7 11.4037 7.08837 10.8683 7.24624L9.30756 5.6855Z" fill="#33363F"/>
<path d="M5.5 2L21.5 18" stroke="#33363F" stroke-width="2"/>
</svg>
