<svg width="45" height="45" viewBox="0 0 45 45" fill="none" xmlns="http://www.w3.org/2000/svg">
<g clip-path="url(#clip0_146_40583)">
<path d="M6.89842 35.1016H8.99992C9.3447 35.1016 9.61792 34.822 9.61792 34.4836C9.61792 34.1443 9.33926 33.8656 8.99992 33.8656H6.89842C6.55364 33.8656 6.28042 34.1452 6.28042 34.4836C6.28042 34.823 6.55908 35.1016 6.89842 35.1016Z" fill="black" stroke="black" stroke-width="0.3"/>
<path d="M35.9956 35.1016H38.0971C38.4419 35.1016 38.7151 34.822 38.7151 34.4836C38.7151 34.1443 38.4364 33.8656 38.0971 33.8656H35.9956C35.6508 33.8656 35.3776 34.1452 35.3776 34.4836C35.3776 34.823 35.6562 35.1016 35.9956 35.1016Z" fill="black" stroke="black" stroke-width="0.3"/>
<path d="M37.2975 24.8673C37.2975 24.1275 36.6949 23.5248 35.955 23.5248H9.04504C8.3052 23.5248 7.70254 24.1275 7.70254 24.8673V28.2378C7.70254 28.9776 8.3052 29.5803 9.04504 29.5803H35.955C36.6949 29.5803 37.2975 28.9776 37.2975 28.2378V24.8673ZM36.057 24.8673V28.2378C36.057 28.2945 36.0117 28.3398 35.955 28.3398H9.04504C8.98838 28.3398 8.94304 28.2945 8.94304 28.2378V24.8673C8.94304 24.8106 8.98838 24.7653 9.04504 24.7653H35.955C36.0117 24.7653 36.057 24.8106 36.057 24.8673Z" fill="black" stroke="black" stroke-width="0.3"/>
<path d="M11.967 23.6485V19.7641C11.967 19.355 11.8024 18.9615 11.5135 18.6726C11.2246 18.3837 10.8311 18.2191 10.422 18.2191H5.21995C4.81082 18.2191 4.41727 18.3837 4.12839 18.6726C3.8395 18.9615 3.67495 19.355 3.67495 19.7641V31.5046C3.67495 31.9138 3.8395 32.3073 4.12839 32.5962C4.41727 32.8851 4.81082 33.0496 5.21995 33.0496H39.78C40.1891 33.0496 40.5826 32.8851 40.8715 32.5962C41.1604 32.3073 41.325 31.9138 41.325 31.5046V19.7641C41.325 19.355 41.1604 18.9615 40.8715 18.6726C40.5826 18.3837 40.1891 18.2191 39.78 18.2191H34.4295C33.5771 18.2191 32.8845 18.9118 32.8845 19.7641V23.7331V23.8831H33.0345H33.975H34.125V23.7331V19.7641C34.125 19.595 34.2603 19.4596 34.4295 19.4596H39.78C39.8609 19.4596 39.94 19.4928 39.9979 19.5507C40.0558 19.6086 40.089 19.6877 40.089 19.7686V31.5091C40.089 31.5901 40.0558 31.6692 39.9979 31.7271C39.94 31.785 39.8609 31.8181 39.78 31.8181H5.21995C5.139 31.8181 5.05993 31.785 5.00202 31.7271C4.9441 31.6692 4.91095 31.5901 4.91095 31.5091V19.7686C4.91095 19.6877 4.9441 19.6086 5.00202 19.5507C5.05993 19.4928 5.139 19.4596 5.21995 19.4596H10.422C10.5029 19.4596 10.582 19.4928 10.6399 19.5507C10.6978 19.6086 10.731 19.6877 10.731 19.7686V23.7151V23.8651H10.881H11.8215H12.1835L11.967 23.6485Z" fill="black" stroke="black" stroke-width="0.3"/>
<path d="M22.1975 10.5664L22.226 10.5647L33.8357 9.90776C33.8357 9.90776 33.8358 9.90776 33.8358 9.90775C34.7954 9.85135 35.7313 10.1949 36.4316 10.8576C37.1275 11.5159 37.5225 12.4328 37.5225 13.392V18.648C37.5225 18.9928 37.2429 19.266 36.9045 19.266C36.5652 19.266 36.2865 18.9873 36.2865 18.648V13.392C36.2865 12.7715 36.0333 12.1811 35.582 11.7551C35.1307 11.329 34.5275 11.1095 33.9068 11.1433C33.9067 11.1433 33.9067 11.1433 33.9066 11.1433L22.243 11.8048L22.2344 11.8052L22.2259 11.8048L10.8098 11.1478C10.8098 11.1478 10.8097 11.1478 10.8096 11.1478C10.189 11.1141 9.5858 11.3335 9.13446 11.7596C8.68315 12.1856 8.42999 12.776 8.42999 13.3965V18.6525C8.42999 18.9973 8.1504 19.2705 7.81199 19.2705C7.47265 19.2705 7.19399 18.9918 7.19399 18.6525V13.3965C7.19399 12.4371 7.58907 11.5203 8.28939 10.8576L8.28978 10.8572L8.28978 10.8572C8.98999 10.1993 9.9257 9.85581 10.8853 9.91226M22.1975 10.5664L10.8853 9.91226M22.1975 10.5664L22.2262 10.568L22.2477 10.5693L22.2395 10.7095M22.1975 10.5664L21.8916 10.5837L22.0139 10.706L10.8765 10.062M10.8853 9.91226L10.8765 10.062M10.8853 9.91226L10.8852 9.91225L10.8765 10.062M10.8765 10.062L22.2395 10.7095M22.2395 10.7095L22.2393 10.7142L22.244 10.714L22.4352 10.7031L22.3451 10.613L22.3406 10.6085L22.2395 10.7095ZM22.2345 10.7145L22.2347 10.7188L22.2345 10.7145Z" fill="black" stroke="black" stroke-width="0.3"/>
</g>
<defs>
<clipPath id="clip0_146_40583">
<rect width="45" height="45" fill="white"/>
</clipPath>
</defs>
</svg>
