<svg width="21" height="23" viewBox="0 0 21 23" fill="none" xmlns="http://www.w3.org/2000/svg">
<g style="mix-blend-mode:luminosity" clip-path="url(#clip0_190_9625)">
<mask id="mask0_190_9625" style="mask-type:luminance" maskUnits="userSpaceOnUse" x="0" y="0" width="21" height="23">
<path d="M0 0.285645V22.2856H21V0.285645H0Z" fill="white"/>
</mask>
<g mask="url(#mask0_190_9625)">
<path d="M21 11.4606C21 10.5859 20.9305 9.94757 20.7801 9.28564H11V13.2336H16.7407C16.625 14.2147 16 15.6923 14.6111 16.6851L14.5916 16.8173L17.6839 19.2638L17.8981 19.2856C19.8657 17.4298 21 14.6993 21 11.4606Z" fill="#4285F4"/>
<path d="M10.7629 22.2856C13.7135 22.2856 16.1907 21.2884 18 19.5682L14.5514 16.8257C13.6286 17.4864 12.39 17.9476 10.7629 17.9476C7.8729 17.9476 5.42006 15.9906 4.54569 13.2856L4.41753 13.2968L1.04412 15.9769L1 16.1028C2.79712 19.7676 6.48856 22.2856 10.7629 22.2856Z" fill="#34A853"/>
<path d="M5 13.5037C4.75516 12.8144 4.61346 12.0758 4.61346 11.3126C4.61346 10.5494 4.75516 9.81085 4.98712 9.12152L4.98063 8.97471L1.3557 6.28564L1.2371 6.33953C0.45104 7.84131 0 9.52775 0 11.3126C0 13.0975 0.45104 14.7839 1.2371 16.2856L5 13.5037Z" fill="#FF7954"/>
<path d="M10.7212 4.62357C12.7646 4.62357 14.1429 5.53354 14.9289 6.29398L18 3.20255C16.1139 1.39507 13.6593 0.285645 10.7212 0.285645C6.46514 0.285645 2.78946 2.80363 1 6.46843L4.51848 9.28564C5.40121 6.58066 7.84358 4.62357 10.7212 4.62357Z" fill="#EB4335"/>
</g>
</g>
<defs>
<clipPath id="clip0_190_9625">
<rect width="21" height="22" fill="white" transform="translate(0 0.285645)"/>
</clipPath>
</defs>
</svg>
