<svg width="23" height="20" viewBox="0 0 23 20" fill="none" xmlns="http://www.w3.org/2000/svg">
<path d="M3.05526 11.3209L10.8622 18.42C11.1478 18.6797 11.2906 18.8096 11.4617 18.8227C11.4872 18.8247 11.5128 18.8247 11.5383 18.8227C11.7094 18.8096 11.8522 18.6797 12.1378 18.42L19.9447 11.3209C22.2241 9.24821 22.4988 5.76037 20.572 3.3564L20.3205 3.04268C18.0644 0.227773 13.648 0.710155 12.0527 3.94575C11.8267 4.40402 11.1733 4.40402 10.9473 3.94575C9.35202 0.710155 4.93563 0.227773 2.67945 3.04268L2.42801 3.3564C0.501202 5.76037 0.77589 9.24821 3.05526 11.3209Z" stroke="black" stroke-width="2"/>
</svg>
