<svg width="25" height="30" viewBox="0 0 25 30" fill="none" xmlns="http://www.w3.org/2000/svg">
<g clip-path="url(#clip0_146_39920)">
<path d="M0.5 3.2619V26.7381C0.5 28.2571 1.77059 29.5 3.32353 29.5H21.6765C23.2294 29.5 24.5 28.2571 24.5 26.7381V3.2619C24.5 1.74286 23.2294 0.5 21.6765 0.5H3.32353C1.77059 0.5 0.5 1.74286 0.5 3.2619ZM21.6765 28.119H3.32353C2.54706 28.119 1.91176 27.4976 1.91176 26.7381V9.2H23.0882V26.7381C23.0882 27.4976 22.4529 28.119 21.6765 28.119ZM3.32353 1.88095H21.6765C22.4529 1.88095 23.0882 2.50238 23.0882 3.2619V7.81905H1.91176V3.2619C1.91176 2.50238 2.54706 1.88095 3.32353 1.88095Z" fill="black"/>
<path d="M12.5001 11.2021C8.22947 11.2021 4.73535 14.62 4.73535 18.7974C4.73535 22.9748 8.22947 26.3926 12.5001 26.3926C16.7706 26.3926 20.2648 22.9748 20.2648 18.7974C20.2648 14.62 16.7706 11.2021 12.5001 11.2021ZM12.5001 25.0117C9.00594 25.0117 6.14712 22.2152 6.14712 18.7974C6.14712 15.3795 9.00594 12.5831 12.5001 12.5831C15.9942 12.5831 18.853 15.3795 18.853 18.7974C18.853 22.2152 15.9942 25.0117 12.5001 25.0117Z" fill="black"/>
<path d="M15.4647 15.6211C13.6647 17.3818 13.6647 20.2128 15.4647 21.9735L16.453 21.0068C15.2177 19.7985 15.2177 17.8306 16.453 16.6223L15.4647 15.6211Z" fill="black"/>
<path d="M15.3234 6.19596C15.994 6.19596 16.5587 5.64358 16.5587 4.98763C16.5587 4.33168 15.994 3.7793 15.3234 3.7793C14.6528 3.7793 14.0881 4.33168 14.0881 4.98763C14.0881 5.64358 14.6528 6.19596 15.3234 6.19596ZM15.3234 4.81501C15.4293 4.81501 15.4999 4.88406 15.4999 4.98763C15.4999 5.0912 15.4293 5.16025 15.3234 5.16025C15.2175 5.16025 15.147 5.0912 15.147 4.98763C15.147 4.88406 15.2175 4.81501 15.3234 4.81501Z" fill="black"/>
<path d="M18.853 6.19596C19.5236 6.19596 20.0883 5.64358 20.0883 4.98763C20.0883 4.33168 19.5236 3.7793 18.853 3.7793C18.1824 3.7793 17.6177 4.33168 17.6177 4.98763C17.6177 5.64358 18.1824 6.19596 18.853 6.19596ZM18.853 4.81501C18.9589 4.81501 19.0294 4.88406 19.0294 4.98763C19.0294 5.0912 18.9589 5.16025 18.853 5.16025C18.7471 5.16025 18.6765 5.0912 18.6765 4.98763C18.6765 4.88406 18.7471 4.81501 18.853 4.81501Z" fill="black"/>
<path d="M10.0295 4.29785H3.67651V5.6788H10.0295V4.29785Z" fill="black"/>
</g>
<defs>
<clipPath id="clip0_146_39920">
<rect width="24" height="29" fill="white" transform="translate(0.5 0.5)"/>
</clipPath>
</defs>
</svg>
