<svg width="33" height="34" viewBox="0 0 33 34" fill="none" xmlns="http://www.w3.org/2000/svg">
<path d="M23.2071 5.05172V5.20172H23.3571H31.3457C31.8921 5.20172 32.3386 5.64725 32.3386 6.18966V26.6724C32.3386 27.2148 31.8921 27.6603 31.3457 27.6603H21.06H20.91V27.8103C20.91 28.0753 20.802 28.3222 20.6113 28.512L17.1827 31.9258C16.7955 32.3113 16.1702 32.3113 15.783 31.9258L12.3559 28.5135C12.1784 28.3261 12.0786 28.0682 12.0786 27.8103V27.6603H11.9286H1.64286C1.09652 27.6603 0.65 27.2148 0.65 26.6724V6.18966C0.65 5.64725 1.09652 5.20172 1.64286 5.20172H9.64286H9.79286V5.05172V1.63793C9.79286 1.09552 10.2394 0.65 10.7857 0.65H22.2143C22.7606 0.65 23.2071 1.09552 23.2071 1.63793V5.05172ZM11.9286 2.62586H11.7786V2.77586V5.05172V5.20172H11.9286H21.0714H21.2214V5.05172V2.77586V2.62586H21.0714H11.9286ZM16.366 17.3632L16.5 17.6301L16.634 17.3632L18.2112 14.2225L18.3203 14.0052H18.0771H14.9229H14.6797L14.7888 14.2225L16.366 17.3632ZM16.3939 29.7257L16.5 29.8319L16.6061 29.7257L18.6747 27.6546L18.7465 27.5827L18.7064 27.4894L16.6378 22.6759L16.5 22.3553L16.3622 22.6759L14.2936 27.4894L14.2535 27.5827L14.3253 27.6546L16.3939 29.7257ZM30.2143 25.6845H30.3643V25.5345V7.32759V7.17759H30.2143H2.78571H2.63571V7.32759V25.5345V25.6845H2.78571H12.8086H12.9075L12.9465 25.5935L15.3808 19.9038L15.4082 19.8396L15.3768 19.7772L12.1883 13.462C12.1883 13.4619 12.1883 13.4619 12.1883 13.4618C12.1175 13.3209 12.0786 13.1732 12.0786 13.0172C12.0786 12.4748 12.5251 12.0293 13.0714 12.0293H19.9286C20.0657 12.0293 20.193 12.0582 20.3231 12.118L20.3233 12.1181C20.8184 12.3449 21.037 12.9369 20.8105 13.4301L17.6231 19.7775L17.5918 19.8398L17.6192 19.9038L20.0535 25.5935L20.0925 25.6845H20.1914H30.2143Z" fill="black" stroke="#F8CE26" stroke-width="0.3"/>
</svg>
