<svg width="16" height="16" viewBox="0 0 16 16" fill="none" xmlns="http://www.w3.org/2000/svg">
<path d="M15.996 16L16 15.9993V10.1313C16 7.26067 15.382 5.04933 12.026 5.04933C10.4127 5.04933 9.33004 5.93467 8.88804 6.774H8.84138V5.31733H5.65938V15.9993H8.97271V10.71C8.97271 9.31734 9.23671 7.97067 10.9614 7.97067C12.6607 7.97067 12.686 9.56001 12.686 10.7993V16H15.996Z" fill="black"/>
<path d="M0.263758 5.318H3.58109V16H0.263758V5.318Z" fill="black"/>
<path d="M1.92133 0C0.860667 0 0 0.860667 0 1.92133C0 2.982 0.860667 3.86067 1.92133 3.86067C2.982 3.86067 3.84267 2.982 3.84267 1.92133C3.842 0.860667 2.98133 0 1.92133 0Z" fill="black"/>
</svg>
