<svg width="17" height="19" viewBox="0 0 17 19" fill="none" xmlns="http://www.w3.org/2000/svg">
<path d="M1 10.8334C1 8.94776 1 8.00495 1.58579 7.41916C2.17157 6.83337 3.11438 6.83337 5 6.83337H11.2222C13.1078 6.83337 14.0506 6.83337 14.6364 7.41916C15.2222 8.00495 15.2222 8.94776 15.2222 10.8334V11.5C15.2222 14.3285 15.2222 15.7427 14.3435 16.6214C13.4649 17.5 12.0506 17.5 9.22222 17.5H7C4.17157 17.5 2.75736 17.5 1.87868 16.6214C1 15.7427 1 14.3285 1 11.5V10.8334Z" stroke="#33363F" stroke-width="2"/>
<path d="M11.6658 5.94444V5.05556C11.6658 3.09188 10.0739 1.5 8.11024 1.5V1.5C6.14656 1.5 4.55469 3.09188 4.55469 5.05556V5.94444" stroke="#33363F" stroke-width="2" stroke-linecap="round"/>
</svg>
