<svg width="206" height="61" viewBox="0 0 206 61" fill="none" xmlns="http://www.w3.org/2000/svg">
<path d="M62.2608 43.0751C62.697 43.5915 63.0146 44.108 63.0146 44.8652C63.0146 46.1773 62.1387 47.0532 60.8266 47.0532C60.0694 47.0532 59.4343 46.6937 58.9597 46.1005L52.7588 38.5876L49.6566 40.9744V44.7117C49.6566 46.1843 48.861 47.0566 47.4687 47.0566C46.0764 47.0566 45.2808 46.1808 45.2808 44.7117V21.0911C45.2808 19.6185 46.1148 18.7461 47.4687 18.7461C48.8226 18.7461 49.6566 19.622 49.6566 21.0911V36.0786L58.9597 28.2865C59.5564 27.8084 60.0345 27.5327 60.708 27.5327C61.9817 27.5327 62.8156 28.4086 62.8156 29.6788C62.8156 30.3941 62.5784 30.9525 61.9398 31.427L56.1367 35.9599L62.2573 43.0751H62.2608Z" fill="#4D4D4D"/>
<path d="M84.367 29.8782V44.8657C84.367 46.1394 83.4528 47.0536 82.1407 47.0536C80.8286 47.0536 79.9946 46.1394 79.9946 44.8657V44.5865H79.9144C78.5639 46.2964 76.4563 47.2909 73.7135 47.2909C68.5071 47.2909 65.6841 44.1887 65.6841 38.4659V29.8782C65.6841 28.4475 66.5181 27.5332 67.872 27.5332C69.226 27.5332 70.06 28.4475 70.06 29.8782V37.9878C70.06 41.446 71.7279 43.2745 74.7918 43.2745C78.0126 43.2745 79.9981 41.0481 79.9981 37.3527V29.8782C79.9981 28.4475 80.8321 27.5332 82.1861 27.5332C83.54 27.5332 84.374 28.4475 84.374 29.8782H84.367Z" fill="#4D4D4D"/>
<path d="M93.0734 21.0911V44.7047C93.0734 46.1773 92.2778 47.0497 90.8854 47.0497C89.4931 47.0497 88.6975 46.1738 88.6975 44.7047V21.0911C88.6975 19.6185 89.5315 18.7461 90.8854 18.7461C92.2394 18.7461 93.0734 19.622 93.0734 21.0911Z" fill="#4D4D4D"/>
<path d="M115.692 29.8782V44.8657C115.692 46.1394 114.778 47.0536 113.466 47.0536C112.154 47.0536 111.32 46.1394 111.32 44.8657V44.5865H111.24C109.889 46.2964 107.782 47.2909 105.039 47.2909C99.8326 47.2909 97.0095 44.1887 97.0095 38.4659V29.8782C97.0095 28.4475 97.8435 27.5332 99.1975 27.5332C100.551 27.5332 101.385 28.4475 101.385 29.8782V37.9878C101.385 41.446 103.057 43.2745 106.117 43.2745C109.338 43.2745 111.324 41.0481 111.324 37.3527V29.8782C111.324 28.4475 112.158 27.5332 113.512 27.5332C114.865 27.5332 115.699 28.4475 115.699 29.8782H115.692Z" fill="#4D4D4D"/>
<path d="M128.098 35.1648C134.26 35.1648 136.567 37.0317 136.567 41.1284C136.567 44.9843 133.426 47.2909 128.22 47.2909C124.165 47.2909 121.701 46.6139 119.712 44.9459C119.276 44.5481 119.035 43.9933 119.035 43.435C119.035 42.1613 119.869 41.3273 121.024 41.3273C121.422 41.3273 121.858 41.4459 122.298 41.7635C123.847 42.915 125.599 43.4315 127.864 43.4315C130.568 43.4315 132.198 42.5556 132.198 41.0865C132.198 39.8128 131.085 39.2196 127.546 39.2196C121.544 39.2196 119.238 37.4295 119.238 33.4968C119.238 29.5641 122.459 27.2959 127.627 27.2959C130.886 27.2959 132.994 27.8507 134.86 29.2431C135.457 29.6792 135.736 30.276 135.736 30.9111C135.736 32.1847 134.902 33.0187 133.747 33.0187C133.151 33.0187 132.634 32.7396 132.198 32.422C131.085 31.588 129.574 31.1483 127.906 31.1483C125.32 31.1483 123.652 32.0626 123.652 33.5352C123.652 34.6867 124.685 35.1648 128.105 35.1648H128.098Z" fill="#4D4D4D"/>
<path d="M158.512 36.1588V44.7047C158.512 46.1773 157.717 47.0497 156.324 47.0497C154.932 47.0497 154.137 46.1738 154.137 44.7047V36.6334C154.137 33.1753 152.469 31.3049 149.328 31.3049C146.187 31.3049 144.08 33.5696 144.08 37.2266V44.7012C144.08 46.1738 143.284 47.0462 141.892 47.0462C140.499 47.0462 139.704 46.1703 139.704 44.7012V21.0911C139.704 19.6185 140.538 18.7461 141.892 18.7461C143.246 18.7461 144.08 19.622 144.08 21.0911V29.9963H144.16C145.51 28.2865 147.657 27.2919 150.441 27.2919C155.689 27.2919 158.512 30.3941 158.512 36.1554V36.1588Z" fill="#4D4D4D"/>
<path d="M182.046 29.8777V44.7047C182.046 46.1773 181.212 47.0497 179.82 47.0497C178.507 47.0497 177.673 46.1738 177.673 44.7047V44.5058H177.593C176.121 46.296 173.856 47.287 170.994 47.287C165.39 47.287 161.691 43.3124 161.691 37.3104C161.691 31.3084 165.387 27.292 170.994 27.292C173.856 27.292 176.124 28.2865 177.593 30.0731H177.673V29.8742C177.673 28.4435 178.507 27.5293 179.82 27.5293C181.212 27.5293 182.046 28.4435 182.046 29.8742V29.8777ZM177.673 37.3104C177.673 33.772 175.287 31.3084 171.87 31.3084C168.454 31.3084 166.148 33.7337 166.148 37.3104C166.148 40.8872 168.492 43.274 171.87 43.274C175.248 43.274 177.673 40.8104 177.673 37.3104Z" fill="#4D4D4D"/>
<path d="M196.042 47.2909C189.761 47.2909 185.626 43.2361 185.626 37.3143C185.626 31.3926 189.761 27.2959 195.844 27.2959C201.367 27.2959 205.583 31.2705 205.583 36.1209V36.3198C205.583 37.8692 204.55 38.8637 202.997 38.8637H190.236C190.752 41.6448 192.979 43.3966 196.039 43.3966C198.105 43.3966 199.696 42.5626 200.649 41.4494C201.127 40.8911 201.643 40.6538 202.278 40.6538C203.552 40.6538 204.344 41.4494 204.344 42.6812C204.344 43.1593 204.184 43.5955 203.866 43.9933C202.118 46.101 199.375 47.2944 196.035 47.2944L196.042 47.2909ZM190.239 35.3637H201.329C200.732 32.8198 198.625 31.1902 195.844 31.1902C193.062 31.1902 190.836 32.8198 190.239 35.3637Z" fill="#4D4D4D"/>
<path d="M13.152 23.9136C10.2941 27.3159 8.59122 31.594 8.59122 36.2491C8.59122 40.9041 10.2941 45.1823 13.152 48.5845V56.1115C13.152 58.418 12.2343 59.6045 10.8559 60.1454C10.1406 60.428 9.29959 60.5362 8.39929 60.5362C5.76819 60.5362 3.64307 59.6219 3.64307 56.1115V13.6893C5.17497 13.4206 6.84645 13.2705 8.59471 13.2705C9.43568 13.2705 10.2557 13.3054 11.0548 13.3717C11.7772 13.4275 12.4786 13.5148 13.1555 13.623V23.9136H13.152Z" fill="url(#paint0_linear_146_40590)"/>
<g opacity="0.15">
<path d="M13.1521 23.9139C10.2942 27.3162 8.59129 31.5944 8.59129 36.2494C8.59129 40.9045 10.2942 45.1826 13.1521 48.5849V56.1118C13.1521 58.4184 12.2344 59.6048 10.856 60.1457C9.47763 59.6083 8.5564 58.4219 8.5564 56.1118V13.6896C9.3555 13.55 10.1895 13.4419 11.0514 13.3721C11.7737 13.4279 12.4751 13.5151 13.1521 13.6233V23.9139Z" fill="white"/>
</g>
<path d="M1.01898 6.09322C1.01549 6.37587 0.781694 6.5992 0.502532 6.59571C0.22337 6.59222 -0.0034498 6.35843 3.97315e-05 6.07577C0.00352926 5.79312 0.237328 5.56979 0.51649 5.57328C0.795652 5.57677 1.02247 5.81057 1.01898 6.08973V6.09322Z" fill="url(#paint1_linear_146_40590)"/>
<path d="M17.0429 6.34755C17.0394 6.6302 16.8056 6.85353 16.5265 6.85004C16.2473 6.84655 16.0205 6.61275 16.024 6.33359C16.0275 6.05442 16.2613 5.8276 16.5404 5.83109C16.8196 5.83458 17.0464 6.06838 17.0429 6.34755Z" fill="url(#paint2_linear_146_40590)"/>
<path d="M4.39325 3.98817C4.38976 4.27082 4.15596 4.49415 3.8768 4.49066C3.59764 4.48717 3.37082 4.25337 3.37431 3.97421C3.3778 3.69505 3.6116 3.46823 3.89076 3.47172C4.16992 3.47521 4.39674 3.70901 4.39325 3.98817Z" fill="url(#paint3_linear_146_40590)"/>
<path d="M13.7731 4.13563C13.7696 4.41828 13.5358 4.64161 13.2567 4.63812C12.9775 4.63463 12.7507 4.40084 12.7542 4.12167C12.7577 3.84251 12.9915 3.61569 13.2706 3.61918C13.5498 3.62267 13.7766 3.85647 13.7731 4.13563Z" fill="url(#paint4_linear_146_40590)"/>
<path d="M9.38331 0.910858C9.37633 1.40637 8.96806 1.80069 8.47254 1.79371C7.97703 1.78673 7.58271 1.37846 7.58969 0.882942C7.59667 0.387429 8.00495 -0.00688783 8.50046 9.12295e-05C8.99597 0.00707029 9.39029 0.415345 9.38331 0.910858Z" fill="url(#paint5_linear_146_40590)"/>
<path d="M13.8116 12.7609L14.0349 12.2235L14.349 11.4593L14.9806 9.93092L15.2947 9.16672L16.5334 6.30879L12.8415 9.12833L13.2498 4.09643L10.5698 8.73751L8.49356 0.798828L6.25678 8.41298L3.86645 3.94987L4.11072 8.99224L0.509521 6.05406L1.65758 8.95037L1.94721 9.72155L2.52647 11.2674L2.8161 12.0386L3.10224 12.7958C6.64411 12.1817 10.2662 12.1887 13.8116 12.754V12.7609Z" fill="url(#paint6_linear_146_40590)"/>
<path d="M13.9721 12.9633L13.8046 13.3681C10.2592 12.8027 6.64058 12.7923 3.09522 13.4099L2.86142 12.7853L2.48804 12.7783L2.50548 12.8237L2.79512 13.5949L3.08126 14.3521C6.62313 13.7379 10.2453 13.7449 13.7906 14.3102L14.014 13.7728L14.328 13.0086L14.3455 12.9633L13.9721 12.9563V12.9633Z" fill="url(#paint7_linear_146_40590)"/>
<path d="M35.0489 16.2861C34.6371 19.9955 32.4701 23.5618 29.4657 25.7811C29.3156 25.9032 28.9946 26.1266 28.8306 26.2313C26.2344 27.9167 23.4148 29.4067 20.8954 31.0049C18.5365 32.474 16.6765 34.0653 14.7015 36.2183C14.684 36.2357 14.6666 36.2567 14.6491 36.2776C13.5988 37.3873 12.2658 38.9122 11.1247 39.973C10.5908 37.8653 10.4547 35.8379 10.6641 33.9117C10.6955 33.636 10.7304 33.3639 10.7757 33.0917C11.5748 28.1435 14.684 23.9142 19.2378 20.8574C20.672 19.8629 22.1237 19.0324 23.5928 18.2891C24.7164 17.7657 25.683 17.3085 26.7752 16.6874C29.0748 15.3963 31.7757 13.4596 34.0963 11.8125C34.2428 11.7078 34.3894 11.6031 34.5359 11.502C34.5953 11.6695 34.6476 11.8404 34.6999 12.0114C35.1117 13.4142 35.2129 14.8624 35.0524 16.2931L35.0489 16.2861Z" fill="url(#paint8_linear_146_40590)"/>
<path d="M34.5288 60.4843C32.1106 58.771 29.2213 56.6738 26.7681 55.2989C25.6794 54.6777 24.7093 54.2206 23.5892 53.6972C22.1201 52.9539 20.6684 52.1234 19.2342 51.1289C12.6879 46.7251 9.12856 39.917 11.1246 32.0098C12.2587 33.0636 13.5952 34.592 14.649 35.7087C16.6415 37.8861 18.5154 39.4948 20.8953 40.9779C23.4182 42.5761 26.2342 44.0661 28.8339 45.7515C28.9979 45.8527 29.3155 46.0795 29.469 46.1982C33.7681 49.3771 36.3539 55.3128 34.5358 60.4843H34.5288Z" fill="url(#paint9_linear_146_40590)"/>
<path d="M42.6038 60.4006C39.9413 59.099 36.7519 57.4938 34.1068 56.5307C32.9308 56.091 31.9014 55.7979 30.7115 55.4594C29.1412 54.9604 27.5744 54.3742 26.0006 53.6239C18.8296 50.3298 14.22 44.1847 14.9214 36.0576C15.0086 36.1169 15.0993 36.1763 15.1901 36.2426C16.4253 37.094 17.8595 38.2735 18.9936 39.1424C21.3107 40.9709 23.4184 42.2585 26.0041 43.3403C28.7539 44.5127 31.7723 45.5282 34.6058 46.774C34.7838 46.8507 35.1362 47.0217 35.3037 47.1159C36.7239 47.8452 38.036 48.8467 39.1492 50.0297C41.7558 52.8108 43.2773 56.6144 42.6003 60.4006H42.6038Z" fill="url(#paint10_linear_146_40590)"/>
<path opacity="0.15" d="M39.1525 50.0293C37.6381 49.464 36.1271 48.9406 34.7662 48.5672C33.5588 48.2252 32.5085 48.0159 31.2941 47.7751C29.6889 47.4087 28.0768 46.9481 26.4472 46.3304C21.1989 44.4216 17.1162 40.981 15.1899 36.2422C16.4252 37.0936 17.8594 38.2731 18.9935 39.142C21.3106 40.9705 23.4183 42.2581 26.004 43.3399C28.7537 44.5124 31.7722 45.5278 34.6057 46.7736C34.7836 46.8504 35.1361 47.0213 35.3036 47.1156C36.7238 47.8449 38.0359 48.8464 39.149 50.0293H39.1525Z" fill="white"/>
<path opacity="0.15" d="M35.1919 16.1426C34.7802 19.8519 32.6132 23.4182 29.6087 25.6376C29.4586 25.7597 29.1376 25.9831 28.9736 26.0877C26.3774 27.7732 23.5578 29.2632 21.0384 30.8614C18.6795 32.3305 16.8196 33.9217 14.8445 36.0748C14.8759 35.7991 14.9108 35.5269 14.9561 35.2547C15.7552 30.3066 18.8644 26.0773 23.4183 23.0204C24.8525 22.0259 26.3041 21.1954 27.7732 20.4521C28.8968 19.9287 29.8634 19.4716 30.9556 18.8505C32.2851 18.1037 33.7473 17.1406 35.1954 16.1461L35.1919 16.1426Z" fill="white"/>
<defs>
<linearGradient id="paint0_linear_146_40590" x1="8.62611" y1="50.947" x2="7.97357" y2="5.95296" gradientUnits="userSpaceOnUse">
<stop stop-color="#FF7C5F"/>
<stop offset="1" stop-color="#2E3192"/>
</linearGradient>
<linearGradient id="paint1_linear_146_40590" x1="0.50215" y1="6.47994" x2="0.518333" y2="5.46113" gradientUnits="userSpaceOnUse">
<stop stop-color="#FF7C5F"/>
<stop offset="1" stop-color="#2E3192"/>
</linearGradient>
<linearGradient id="paint2_linear_146_40590" x1="16.5196" y1="7.23302" x2="16.5358" y2="6.2142" gradientUnits="userSpaceOnUse">
<stop stop-color="#FF7C5F"/>
<stop offset="1" stop-color="#CB696C"/>
</linearGradient>
<linearGradient id="paint3_linear_146_40590" x1="3.87591" y1="4.34097" x2="3.89209" y2="3.32215" gradientUnits="userSpaceOnUse">
<stop stop-color="#FF7C5F"/>
<stop offset="1" stop-color="#2E3192"/>
</linearGradient>
<linearGradient id="paint4_linear_146_40590" x1="13.2573" y1="4.54323" x2="13.2735" y2="3.52093" gradientUnits="userSpaceOnUse">
<stop stop-color="#FF7C5F"/>
<stop offset="1" stop-color="#2E3192"/>
</linearGradient>
<linearGradient id="paint5_linear_146_40590" x1="8.47431" y1="1.57363" x2="8.5028" y2="-0.219767" gradientUnits="userSpaceOnUse">
<stop stop-color="#FF7C5F"/>
<stop offset="1" stop-color="#2E3192"/>
</linearGradient>
<linearGradient id="paint6_linear_146_40590" x1="8.69898" y1="15.7775" x2="8.40209" y2="-0.246162" gradientUnits="userSpaceOnUse">
<stop stop-color="#FF7C5F"/>
<stop offset="1" stop-color="#2E3192"/>
</linearGradient>
<linearGradient id="paint7_linear_146_40590" x1="8.39884" y1="14.0172" x2="8.44273" y2="11.2539" gradientUnits="userSpaceOnUse">
<stop stop-color="#FF7C5F"/>
<stop offset="1" stop-color="#2E3192"/>
</linearGradient>
<linearGradient id="paint8_linear_146_40590" x1="10.5664" y1="25.7357" x2="35.1187" y2="25.7357" gradientUnits="userSpaceOnUse">
<stop stop-color="#2E3192"/>
<stop offset="1" stop-color="#8A6DD1"/>
</linearGradient>
<linearGradient id="paint9_linear_146_40590" x1="10.5662" y1="46.247" x2="35.1186" y2="46.247" gradientUnits="userSpaceOnUse">
<stop stop-color="#2E3192"/>
<stop offset="1" stop-color="#8A6DD1"/>
</linearGradient>
<linearGradient id="paint10_linear_146_40590" x1="14.8481" y1="48.2291" x2="42.7643" y2="48.2291" gradientUnits="userSpaceOnUse">
<stop stop-color="#CF196D"/>
<stop offset="1" stop-color="#FF7C5F"/>
</linearGradient>
</defs>
</svg>
