<svg width="36" height="36" viewBox="0 0 36 36" fill="none" xmlns="http://www.w3.org/2000/svg">
<g clip-path="url(#clip0_146_39983)">
<path d="M27 30.375V5.625C27 4.38236 25.9926 3.375 24.75 3.375L11.25 3.375C10.0074 3.375 9 4.38236 9 5.625V30.375C9 31.6176 10.0074 32.625 11.25 32.625H24.75C25.9926 32.625 27 31.6176 27 30.375Z" stroke="black" stroke-width="2" stroke-linecap="round" stroke-linejoin="round"/>
<path d="M18 10.125C18.932 10.125 19.6875 9.36948 19.6875 8.4375C19.6875 7.50552 18.932 6.75 18 6.75C17.068 6.75 16.3125 7.50552 16.3125 8.4375C16.3125 9.36948 17.068 10.125 18 10.125Z" fill="black"/>
</g>
<defs>
<clipPath id="clip0_146_39983">
<rect width="36" height="36" fill="white"/>
</clipPath>
</defs>
</svg>
