<svg width="18" height="25" viewBox="0 0 18 25" fill="none" xmlns="http://www.w3.org/2000/svg">
<mask id="mask0_95_7173" style="mask-type:luminance" maskUnits="userSpaceOnUse" x="0" y="0" width="18" height="25">
<path d="M0 0.285645V24.2856H18V0.285645H0Z" fill="white"/>
</mask>
<g mask="url(#mask0_95_7173)">
</g>
<mask id="mask1_95_7173" style="mask-type:luminance" maskUnits="userSpaceOnUse" x="0" y="0" width="18" height="25">
<path d="M0 0.285645V24.2856H18V0.285645H0Z" fill="white"/>
</mask>
<g mask="url(#mask1_95_7173)">
<path fill-rule="evenodd" clip-rule="evenodd" d="M1 3.28564C1 1.63096 2.38608 0.285645 4.09091 0.285645H14.9091C16.6139 0.285645 18 1.63096 18 3.28564V21.2856C18 22.9403 16.6139 24.2856 14.9091 24.2856H4.09091C2.38608 24.2856 1 22.9403 1 21.2856V3.28564ZM11.0455 21.2856C11.0455 20.456 10.3548 19.7856 9.5 19.7856C8.64517 19.7856 7.95455 20.456 7.95455 21.2856C7.95455 22.1153 8.64517 22.7856 9.5 22.7856C10.3548 22.7856 11.0455 22.1153 11.0455 21.2856ZM4.09091 3.28564H14.9091V18.2856H4.09091V3.28564Z" fill="black"/>
</g>
</svg>
