<svg width="14" height="14" viewBox="0 0 14 14" fill="none" xmlns="http://www.w3.org/2000/svg">
<rect width="14" height="14" rx="7" fill="black"/>
<path d="M7.17231 9.45049L9.14244 10.6987C9.39428 10.8582 9.70694 10.6209 9.63222 10.327L9.063 8.08782C9.04697 8.02546 9.04887 7.95983 9.06848 7.8985C9.08809 7.83716 9.12461 7.78261 9.17384 7.74111L10.9405 6.27066C11.1727 6.07745 11.0529 5.69219 10.7546 5.67284L8.44743 5.5231C8.38528 5.51866 8.32568 5.49666 8.27556 5.45966C8.22543 5.42265 8.18685 5.37217 8.16431 5.31409L7.30382 3.14718C7.28043 3.08553 7.23884 3.03246 7.18458 2.99501C7.13031 2.95756 7.06594 2.9375 7 2.9375C6.93407 2.9375 6.86969 2.95756 6.81543 2.99501C6.76116 3.03246 6.71957 3.08553 6.69618 3.14718L5.8357 5.31409C5.81315 5.37217 5.77457 5.42265 5.72445 5.45966C5.67432 5.49666 5.61472 5.51866 5.55258 5.5231L3.24539 5.67284C2.94715 5.69219 2.82733 6.07745 3.05947 6.27066L4.82616 7.74111C4.87539 7.78261 4.91192 7.83716 4.93152 7.8985C4.95113 7.95983 4.95303 8.02546 4.937 8.08782L4.40912 10.1644C4.31944 10.5171 4.69465 10.8019 4.99685 10.6104L6.82769 9.45049C6.87919 9.41771 6.93896 9.4003 7 9.4003C7.06104 9.4003 7.12082 9.41771 7.17231 9.45049Z" fill="white"/>
</svg>
