<svg width="63" height="29" viewBox="0 0 63 29" fill="none" xmlns="http://www.w3.org/2000/svg">
<g clip-path="url(#clip0_146_39988)">
<path d="M24.5227 29.0003C21.7466 29.0003 19.4331 26.6616 19.4331 23.8551C19.4331 21.0487 21.7466 18.71 24.5227 18.71C27.2989 18.71 29.6123 21.0487 29.6123 23.8551C29.6123 26.6616 27.2989 29.0003 24.5227 29.0003ZM24.5227 20.5809C22.7645 20.5809 21.2839 22.0777 21.2839 23.8551C21.2839 25.6325 22.7645 27.1293 24.5227 27.1293C26.2809 27.1293 27.7615 25.6325 27.7615 23.8551C27.7615 22.0777 26.2809 20.5809 24.5227 20.5809Z" fill="black"/>
<path d="M24.5226 25.2586C23.7823 25.2586 23.1345 24.6038 23.1345 23.8554C23.1345 23.107 23.7823 22.4521 24.5226 22.4521C25.2629 22.4521 25.9107 23.107 25.9107 23.8554C25.9107 24.6038 25.2629 25.2586 24.5226 25.2586ZM24.5226 23.3876C24.245 23.3876 24.0599 23.5747 24.0599 23.8554C24.0599 24.136 24.245 24.3231 24.5226 24.3231C24.8002 24.3231 24.9853 24.136 24.9853 23.8554C24.9853 23.5747 24.8002 23.3876 24.5226 23.3876Z" fill="black"/>
<path d="M59.1318 24.3226H56.4482V22.4516H59.1318C59.6871 22.358 60.8901 20.3 61.0751 19.458C61.4453 17.9613 60.9826 16.8387 60.6124 16.2774C60.0572 15.4355 59.4094 15.0613 59.0393 15.0613C57.9288 14.8742 56.1706 14.5 54.4124 14.2193C52.1915 13.7516 49.3228 13.2839 48.9526 13.1903V11.3193C49.2303 11.3193 50.1556 11.5064 54.69 12.3484C56.4482 12.7226 58.2065 13.0032 59.3169 13.1903C60.3348 13.3774 61.3528 14.2193 62.0931 15.2484C62.7408 16.1839 63.2961 17.7742 62.8334 19.9258C62.7408 20.5806 61.1677 24.3226 59.1318 24.3226Z" fill="black"/>
<path d="M20.3584 24.3228H17.5822C14.9912 24.3228 12.9553 22.2648 12.9553 19.6454V15.9035C12.9553 13.2841 14.9912 11.2261 17.5822 11.2261H21.6539L23.5047 7.39057C24.6151 5.14541 26.9286 3.74219 29.4271 3.74219H41.3645C43.5855 3.74219 45.6213 4.86477 46.8243 6.82928L49.7855 11.6938L48.2124 12.7228L45.2511 7.85832C44.4183 6.45509 42.9377 5.61316 41.3645 5.61316H29.4271C27.5764 5.61316 26.0032 6.64219 25.1704 8.23251L22.7644 13.097H17.5822C16.0091 13.097 14.8061 14.3132 14.8061 15.9035V19.6454C14.8061 21.2357 16.0091 22.4519 17.5822 22.4519H20.3584V24.3228Z" fill="black"/>
<path d="M52.2839 29.0003C49.5078 29.0003 47.1943 26.6616 47.1943 23.8551C47.1943 21.0487 49.5078 18.71 52.2839 18.71C55.0601 18.71 57.3735 21.0487 57.3735 23.8551C57.3735 26.6616 55.0601 29.0003 52.2839 29.0003ZM52.2839 20.5809C50.5257 20.5809 49.0451 22.0777 49.0451 23.8551C49.0451 25.6325 50.5257 27.1293 52.2839 27.1293C54.0422 27.1293 55.5228 25.6325 55.5228 23.8551C55.5228 22.0777 54.0422 20.5809 52.2839 20.5809Z" fill="black"/>
<path d="M52.2838 25.2586C51.5435 25.2586 50.8958 24.6038 50.8958 23.8554C50.8958 23.107 51.5435 22.4521 52.2838 22.4521C53.0241 22.4521 53.6719 23.107 53.6719 23.8554C53.6719 24.6038 53.0241 25.2586 52.2838 25.2586ZM52.2838 23.3876C52.0062 23.3876 51.8211 23.5747 51.8211 23.8554C51.8211 24.136 52.0062 24.3231 52.2838 24.3231C52.5614 24.3231 52.7465 24.136 52.7465 23.8554C52.7465 23.5747 52.5614 23.3876 52.2838 23.3876Z" fill="black"/>
<path d="M49.0452 13.0972H36.0898V6.54883H45.3437V8.4198H37.9406V11.2262H49.0452V13.0972Z" fill="black"/>
<path d="M37.0152 13.0972H28.5942C27.8539 13.0972 27.2986 12.723 26.9285 12.0682C26.5583 11.4133 26.5583 10.665 26.9285 10.1037L28.3166 7.76496C28.7793 7.01657 29.6121 6.54883 30.4449 6.54883H37.0152V8.4198H30.4449C30.2599 8.4198 29.9823 8.51334 29.8897 8.70044L28.5016 11.0392L28.5942 11.1327H37.0152V13.0972Z" fill="black"/>
<path d="M47.1944 22.4512H28.6868V24.3221H47.1944V22.4512Z" fill="black"/>
<path d="M16.6568 14.9678H13.8806V16.8387H16.6568V14.9678Z" fill="black"/>
<path d="M62.0006 16.8389H58.2991V18.7098H62.0006V16.8389Z" fill="black"/>
<path d="M35.1645 15.9033H33.3137V17.7743H35.1645V15.9033Z" fill="black"/>
<path d="M37.0153 17.7744H35.1646V19.6454H37.0153V17.7744Z" fill="black"/>
<path d="M38.8659 15.9033H37.0151V17.7743H38.8659V15.9033Z" fill="black"/>
<path d="M42.5676 15.9033H40.7168V17.7743H42.5676V15.9033Z" fill="black"/>
<path d="M40.7167 17.7744H38.866V19.6454H40.7167V17.7744Z" fill="black"/>
<path d="M41.6422 4.67742H39.7914V2.80645C39.7914 2.33871 39.3287 1.87097 38.681 1.87097H33.4988C32.9436 1.87097 32.3884 2.24516 32.3884 2.80645V4.67742H30.5376V2.80645C30.5376 1.30968 31.8331 0 33.4988 0H38.681C40.3466 0 41.6422 1.21613 41.6422 2.80645V4.67742Z" fill="black"/>
<path d="M10.1792 16.8389H4.62695V18.7098H10.1792V16.8389Z" fill="black"/>
<path d="M8.32844 12.1611H0V14.0321H8.32844V12.1611Z" fill="black"/>
<path d="M17.5823 7.4834H4.62695V9.35437H17.5823V7.4834Z" fill="black"/>
</g>
<defs>
<clipPath id="clip0_146_39988">
<rect width="63" height="29" fill="white"/>
</clipPath>
</defs>
</svg>
