<svg width="36" height="36" viewBox="0 0 36 36" fill="none" xmlns="http://www.w3.org/2000/svg">
<g clip-path="url(#clip0_146_39908)">
<path d="M26.0143 5.21282L20.1134 11.1137L20.9089 15.0912L24.8863 15.8867L30.7872 9.9858L30.7878 9.98555C31.5182 11.7097 31.6929 13.6186 31.2875 15.4466C30.8822 17.2746 29.917 18.9308 28.5263 20.1846C27.1357 21.4384 25.3887 22.2274 23.5286 22.4418C21.6684 22.6563 19.7878 22.2854 18.1483 21.3809L18.1485 21.3806L10.2613 30.5117C9.62829 31.144 8.77003 31.4991 7.87526 31.4988C6.98049 31.4986 6.12244 31.143 5.48974 30.5103C4.85704 29.8776 4.50148 29.0196 4.50122 28.1248C4.50097 27.23 4.85604 26.3718 5.48838 25.7387L14.6193 17.8517L14.6192 17.8518C13.7147 16.2123 13.3438 14.3316 13.5582 12.4715C13.7726 10.6114 14.5616 8.86442 15.8154 7.47373C17.0692 6.08304 18.7254 5.11786 20.5534 4.71252C22.3815 4.30718 24.2904 4.48187 26.0145 5.21225L26.0143 5.21282Z" stroke="black" stroke-width="2" stroke-linecap="round" stroke-linejoin="round"/>
</g>
<defs>
<clipPath id="clip0_146_39908">
<rect width="36" height="36" fill="white"/>
</clipPath>
</defs>
</svg>
