<svg width="10" height="12" viewBox="0 0 10 12" fill="none" xmlns="http://www.w3.org/2000/svg">
<path fill-rule="evenodd" clip-rule="evenodd" d="M9.30949 1.82551L5.68676 0.178814C5.16224 -0.0596044 4.56851 -0.0596046 4.04399 0.178813L0.421259 1.82551C0.165699 1.94167 0 2.20819 0 2.50308V6.3754C0 7.80384 0.650427 9.14434 1.74637 9.9746L4.05739 11.7254C4.54073 12.0915 5.19002 12.0915 5.67336 11.7254L7.98438 9.9746C9.08032 9.14434 9.73075 7.80384 9.73075 6.3754V2.50308C9.73075 2.20819 9.56505 1.94167 9.30949 1.82551ZM7.74881 4.83058C8.08139 4.38966 7.99357 3.76262 7.55265 3.43004C7.11173 3.09746 6.48468 3.18529 6.1521 3.62621L4.08522 6.3664L3.50773 5.75392C3.12885 5.35208 2.49596 5.33347 2.09413 5.71234C1.69229 6.09122 1.67367 6.72411 2.05255 7.12594L3.03635 8.16936C3.67364 8.84529 4.76584 8.78528 5.32526 8.04363L7.74881 4.83058Z" fill="#222222"/>
</svg>
