<svg width="16" height="15" viewBox="0 0 16 15" fill="none" xmlns="http://www.w3.org/2000/svg">
<path fill-rule="evenodd" clip-rule="evenodd" d="M13.3057 2.17987C11.9024 0.774902 10.0361 0.000823973 8.04782 0C3.95084 0 0.616486 3.33426 0.614838 7.43234C0.614288 8.74237 0.956512 10.0212 1.60699 11.1484L0.55249 15L4.49283 13.9664C5.57855 14.5586 6.80087 14.8707 8.0448 14.8711H8.04791C12.1444 14.8711 15.4792 11.5366 15.4807 7.43829C15.4815 5.45215 14.7091 3.58475 13.3057 2.17987ZM8.04782 13.6158H8.04526C6.93674 13.6154 5.84955 13.3174 4.90088 12.7547L4.67538 12.6207L2.33713 13.2341L2.96124 10.9544L2.8143 10.7206C2.19586 9.737 1.86929 8.6001 1.86984 7.4328C1.87112 4.02658 4.64261 1.25537 8.05029 1.25537C9.70044 1.25592 11.2516 1.89935 12.418 3.06711C13.5844 4.23486 14.2263 5.78705 14.2258 7.43783C14.2243 10.8443 11.453 13.6158 8.04782 13.6158ZM11.4366 8.98883C11.2509 8.89581 10.3377 8.44665 10.1674 8.38458C9.99734 8.3226 9.87338 8.29175 9.74969 8.4776C9.62582 8.66345 9.26996 9.08185 9.16156 9.20572C9.05316 9.32968 8.94495 9.34524 8.75918 9.25223C8.57342 9.1593 7.97504 8.9631 7.26559 8.33038C6.71353 7.83792 6.34082 7.22974 6.23242 7.04388C6.12421 6.85785 6.23151 6.76703 6.3139 6.66486C6.51495 6.41519 6.71628 6.15344 6.77817 6.02957C6.84015 5.90561 6.80911 5.79712 6.7626 5.70419C6.71628 5.61127 6.34485 4.69711 6.19012 4.32513C6.03925 3.96313 5.88626 4.01202 5.77219 4.00635C5.66397 4.00095 5.5401 3.99985 5.41623 3.99985C5.29245 3.99985 5.09122 4.04626 4.92093 4.2323C4.75073 4.41824 4.271 4.86749 4.271 5.78165C4.271 6.6958 4.93649 7.57892 5.02933 7.70288C5.12216 7.82684 6.33899 9.70276 8.202 10.5071C8.64511 10.6987 8.991 10.8128 9.2608 10.8984C9.70575 11.0398 10.1105 11.0198 10.4306 10.972C10.7874 10.9187 11.5293 10.5227 11.6842 10.0889C11.8389 9.65506 11.8389 9.28326 11.7924 9.20572C11.7461 9.12826 11.6222 9.08185 11.4366 8.98883Z" fill="black"/>
</svg>
